<svg width="148" height="25" viewBox="0 0 148 25" fill="none" xmlns="http://www.w3.org/2000/svg">
<path d="M36.35 17.534C36.35 18.56 36.35 19.172 36.332 20H39.032C39.014 19.136 39.014 18.47 39.014 17.534V14.564C39.014 12.188 39.59 11.702 41.228 11.702C42.848 11.702 43.352 12.188 43.352 14.204V17.642C43.352 18.74 43.352 19.136 43.334 20H46.016C45.998 19.1 45.998 18.488 45.998 17.66V15.14C46.016 13.97 46.016 13.322 46.016 12.782C46.016 10.28 45.026 9.272 42.542 9.272C40.742 9.272 39.59 9.794 38.942 11.162C38.978 10.118 39.05 6.878 39.05 6.536H36.332C36.35 7.31 36.35 8.03 36.35 9.11V17.534ZM51.9675 20.216C53.8755 20.216 54.9375 19.64 55.5135 18.614L55.5315 20H57.9795C57.9615 18.578 57.9615 17.66 57.9615 16.58C57.9615 14.78 57.9795 14.24 57.9795 12.818C57.9795 10.388 56.9355 9.272 53.1915 9.272C49.7175 9.272 48.5835 10.28 48.6195 12.728L51.0855 12.782C51.0855 11.792 51.3555 11.45 53.1015 11.45C54.8655 11.45 55.3155 11.936 55.3155 13.43V14.564C54.7215 13.844 53.6955 13.52 52.0035 13.52C49.1415 13.52 48.1335 14.51 48.1335 16.904C48.1335 19.28 49.0695 20.216 51.9675 20.216ZM53.1015 18.236C51.3915 18.236 50.8515 17.894 50.8515 16.796C50.8515 15.68 51.2295 15.266 53.1915 15.266C54.9015 15.266 55.3875 15.662 55.3875 16.472V16.814C55.3875 17.822 54.9015 18.236 53.1015 18.236ZM65.0542 20.216C68.7442 20.216 70.0582 19.01 70.0582 15.716L67.4302 15.644C67.4302 17.228 66.8722 17.84 65.0722 17.84C63.2722 17.84 62.6782 17.282 62.6782 14.798V14.69C62.6782 12.188 63.2542 11.63 65.0542 11.63C66.8542 11.63 67.3762 12.242 67.3942 13.826L70.0222 13.772C70.0222 10.334 68.7622 9.272 65.0542 9.272C61.3462 9.272 59.9782 10.46 59.9782 14.474V15.014C59.9782 19.028 61.3462 20.216 65.0542 20.216ZM72.016 17.498C72.016 18.524 72.016 19.28 71.998 20H74.698C74.68 19.262 74.68 18.524 74.68 17.48V15.734H75.706C76.048 16.256 76.426 16.778 76.804 17.318L78.802 20H81.988L82.006 19.964C80.746 18.434 79.108 16.202 77.794 14.492C79.018 12.926 80.53 10.964 81.754 9.524L81.736 9.488H78.604L76.84 11.81C76.39 12.386 75.994 12.944 75.634 13.484H74.68V9.092C74.68 8.03 74.68 7.202 74.698 6.536H71.998C72.016 7.22 72.016 8.03 72.016 9.092V17.498ZM87.3801 20.216C91.1421 20.216 92.5101 19.028 92.5101 15.014V14.474C92.5101 10.46 91.1421 9.272 87.3801 9.272C83.6001 9.272 82.2321 10.46 82.2321 14.474V15.014C82.2321 19.028 83.6001 20.216 87.3801 20.216ZM87.3801 17.858C85.5081 17.858 84.9321 17.282 84.9321 14.798V14.69C84.9321 12.188 85.5081 11.63 87.3801 11.63C89.2521 11.63 89.8281 12.188 89.8281 14.69V14.798C89.8281 17.282 89.2521 17.858 87.3801 17.858ZM94.5135 13.556C94.5135 14.726 94.4955 16.148 94.4955 16.706C94.4955 19.208 95.4495 20.216 97.9155 20.216C99.7335 20.216 100.885 19.658 101.533 18.182L101.551 20H104.089C104.071 19.226 104.071 18.65 104.071 17.75V11.9C104.071 10.892 104.071 10.316 104.089 9.488H101.389C101.407 10.298 101.407 10.82 101.407 11.81V14.816C101.407 17.3 100.831 17.768 99.2295 17.768C97.6095 17.768 97.1595 17.3 97.1595 15.284V11.612C97.1595 10.712 97.1775 10.226 97.1775 9.488H94.4955C94.5135 10.316 94.5135 10.874 94.5135 11.648V13.556ZM107.147 12.764C107.147 14.384 107.129 15.968 107.129 17.03C107.129 19.352 107.939 20.072 110.801 20.072C111.449 20.072 111.953 20.054 112.637 20L112.619 17.75C112.115 17.768 111.845 17.786 111.467 17.786C109.991 17.786 109.793 17.534 109.793 16.292V11.738H112.619V9.488H109.793C109.793 8.624 109.793 8.03 109.811 7.418L107.129 7.49C107.147 8.048 107.147 8.75 107.147 9.488H105.545V11.738H107.147V12.764ZM122.424 12.35V9.362C122.334 9.38 121.884 9.38 121.398 9.38C121.488 9.128 121.578 8.894 121.668 8.66L122.154 7.202H120.084L119.31 9.434V12.35H122.424ZM135.083 20V17.714C134.273 17.732 133.175 17.732 131.915 17.732H126.875V17.084C126.875 15.932 127.253 15.662 129.845 15.338C134.057 14.888 135.047 13.916 135.047 11.072V11C135.047 8.012 133.769 6.968 129.665 6.968C125.399 6.968 124.283 8.174 124.319 11.126V11.396L127.001 11.468V11C127.001 9.686 127.613 9.236 129.665 9.236C131.861 9.236 132.347 9.686 132.347 11.018V11.072C132.347 12.314 131.933 12.836 129.197 13.16C124.895 13.664 124.211 14.474 124.211 16.868V20H135.083ZM147.634 20V17.714C146.824 17.732 145.726 17.732 144.466 17.732H139.426V17.084C139.426 15.932 139.804 15.662 142.396 15.338C146.608 14.888 147.598 13.916 147.598 11.072V11C147.598 8.012 146.32 6.968 142.216 6.968C137.95 6.968 136.834 8.174 136.87 11.126V11.396L139.552 11.468V11C139.552 9.686 140.164 9.236 142.216 9.236C144.412 9.236 144.898 9.686 144.898 11.018V11.072C144.898 12.314 144.484 12.836 141.748 13.16C137.446 13.664 136.762 14.474 136.762 16.868V20H147.634Z" fill="#F0F0F0"/>
<line x1="91.175" y1="9.50015" x2="83.7921" y2="20.4201" stroke="#F0F0F0" stroke-width="1.5"/>
<path d="M27.8666 12.1353C25.8384 16.0088 20.8178 17.9399 15.6421 17.9399C11.5303 17.9399 7.48496 17.3865 3.96057 15.7942C12.3837 16.7089 20.5408 16.3476 27.8666 12.1353ZM27.8666 10.5204C25.4062 9.77505 23.1896 9.56049 20.8954 9.58307C15.0768 9.62824 9.19175 11.4125 3.99381 13.7502C8.12778 10.0122 14.2789 7.2906 20.441 7.2906C23.378 7.2906 26.7583 8.5667 27.8666 10.5204ZM28.9971 11.3674C28.9971 7.39224 23.112 5.77734 19.7539 5.77734C14.4894 5.77734 10.0673 7.73103 6.288 9.87669C6.05526 9.44756 5.72277 9.36851 5.20186 9.30075C4.42605 9.23299 3.94948 9.19911 3.36208 9.19911C2.71927 9.19911 1.75505 9.24428 1.0014 9.3685C0.63566 9.43626 0.513747 9.72988 0.613494 10.1816C0.945985 11.4125 1.44472 12.5192 2.09862 13.5582C1.81046 14.5746 1.91021 15.5345 2.74143 16.325C2.45328 17.5107 2.36461 18.8094 2.40894 19.9839C2.47544 20.4695 2.71927 20.605 3.11826 20.5372C4.60338 20.3001 6.04417 19.7693 7.29655 19.0917C7.60688 18.9223 7.75096 18.7304 7.83962 18.4932L11.5081 19.0692C12.0733 19.6903 12.6386 20.221 13.3257 20.8083C13.7801 21.1471 14.2678 21.339 14.8663 21.339C17.5373 21.3165 19.7871 20.9099 21.6491 20.1872C22.3805 19.95 22.9236 18.9562 23.7327 17.5672C25.5281 16.6412 28.9971 14.9021 28.9971 11.3674Z" fill="#F0F0F0"/>
</svg>
