<?xml version="1.0" encoding="UTF-8" standalone="no"?>
<!-- Created with Inkscape (http://www.inkscape.org/) -->

<svg
   version="1.1"
   id="svg2"
   xml:space="preserve"
   width="528.25336"
   height="471.33334"
   viewBox="0 0 528.25336 471.33334"
   sodipodi:docname="add.eps"
   xmlns:inkscape="http://www.inkscape.org/namespaces/inkscape"
   xmlns:sodipodi="http://sodipodi.sourceforge.net/DTD/sodipodi-0.dtd"
   xmlns="http://www.w3.org/2000/svg"
   xmlns:svg="http://www.w3.org/2000/svg"><defs
     id="defs6" /><sodipodi:namedview
     id="namedview4"
     pagecolor="#ffffff"
     bordercolor="#666666"
     borderopacity="1.0"
     inkscape:pageshadow="2"
     inkscape:pageopacity="0.0"
     inkscape:pagecheckerboard="0" /><g
     id="g8"
     inkscape:groupmode="layer"
     inkscape:label="ink_ext_XXXXXX"
     transform="matrix(1.3333333,0,0,-1.3333333,0,471.33333)"><g
       id="g10"
       transform="scale(0.1)"><path
         d="M 2326.58,3294.94 C 1946.29,2901.5 1747.38,2873.06 1265.55,2655.41 871.629,2477.47 481.574,2131.6 348.512,1700.64 -2.01953,565.34 1556.01,423.371 2291.68,608.719 c 517.94,130.492 725.15,431.011 856.31,929.561 51.01,193.9 65.89,403.62 149.91,588.15 90.27,198.25 275.12,294.77 367.14,468.84 446.03,843.68 -831.54,1224.11 -1338.46,699.67"
         style="fill:#406fbf;fill-opacity:1;fill-rule:nonzero;stroke:none"
         id="path12" /><path
         d="M 1688.16,540.879 C 1190.96,540.891 642.234,667.301 410.738,1009.88 H 2508.85 C 2576.54,933.949 2657.94,870.5 2749.17,823.441 2631,727.879 2482.4,656.77 2291.68,608.719 2122.8,566.172 1910.67,540.871 1688.16,540.879 M 3445.48,2333.21 c -97.26,39.89 -203.8,61.89 -315.43,61.89 -69.77,0 -137.5,-8.58 -202.26,-24.76 v 141.97 0 l -0.01,425.94 H 1886.69 c 137.97,79.28 271.06,182.01 439.89,356.69 159.09,164.59 394.04,240.04 627.85,240.04 403.44,0 803.38,-224.83 803.52,-604.18 0.04,-101.29 -28.42,-213.54 -92.91,-335.53 -53.9,-101.95 -139.63,-177.29 -219.56,-262.06"
         style="fill:#e6effa;fill-opacity:1;fill-rule:nonzero;stroke:none"
         id="path14" /><path
         d="M 3915.89,113.23 C 3915.89,50.6914 3047.81,0 1976.99,0 906.172,0 38.1016,50.6914 38.1016,113.23 c 0,62.54 868.0704,113.239 1938.8884,113.239 1070.82,0 1938.9,-50.699 1938.9,-113.239"
         style="fill:#f3f2f1;fill-opacity:1;fill-rule:nonzero;stroke:none"
         id="path16" /><path
         d="m 0,3140.36 c 0,34.53 28.2539,62.78 62.7852,62.78 H 2864.99 c 34.54,0 62.79,-28.25 62.79,-62.78 V 2938.25 H 0 v 202.11"
         style="fill:#17282f;fill-opacity:1;fill-rule:nonzero;stroke:none"
         id="path18" /><path
         d="m 507.656,3112.62 c -23.109,0 -41.914,-18.81 -41.914,-41.92 0,-23.11 18.805,-41.92 41.914,-41.92 23.114,0 41.918,18.81 41.918,41.92 0,23.11 -18.804,41.92 -41.918,41.92 z m 0,-94.96 c -29.242,0 -53.035,23.8 -53.035,53.04 0,29.24 23.793,53.03 53.035,53.03 29.246,0 53.035,-23.79 53.035,-53.03 0,-29.24 -23.789,-53.04 -53.035,-53.04"
         style="fill:#ededeb;fill-opacity:1;fill-rule:nonzero;stroke:none"
         id="path20" /><path
         d="m 339.438,3112.62 c -23.114,0 -41.918,-18.81 -41.918,-41.92 0,-23.11 18.804,-41.92 41.918,-41.92 23.113,0 41.917,18.81 41.917,41.92 0,23.11 -18.804,41.92 -41.917,41.92 z m 0,-94.96 c -29.243,0 -53.036,23.8 -53.036,53.04 0,29.24 23.793,53.03 53.036,53.03 29.242,0 53.035,-23.79 53.035,-53.03 0,-29.24 -23.793,-53.04 -53.035,-53.04"
         style="fill:#ededeb;fill-opacity:1;fill-rule:nonzero;stroke:none"
         id="path22" /><path
         d="m 171.215,3112.62 c -23.113,0 -41.918,-18.81 -41.918,-41.92 0,-23.11 18.805,-41.92 41.918,-41.92 23.113,0 41.918,18.81 41.918,41.92 0,23.11 -18.805,41.92 -41.918,41.92 z m 0,-94.96 c -29.242,0 -53.035,23.8 -53.035,53.04 0,29.24 23.793,53.03 53.035,53.03 29.242,0 53.035,-23.79 53.035,-53.03 0,-29.24 -23.793,-53.04 -53.035,-53.04"
         style="fill:#ededeb;fill-opacity:1;fill-rule:nonzero;stroke:none"
         id="path24" /><path
         d="M 2864.99,1009.88 H 62.7852 C 28.2539,1009.88 0,1038.14 0,1072.67 V 2938.25 H 2927.78 V 1072.67 c 0,-34.53 -28.25,-62.79 -62.79,-62.79"
         style="fill:#406fbf;fill-opacity:1;fill-rule:nonzero;stroke:none"
         id="path26" /><path
         d="m 17.7813,1231.22 h 2892.22 V 2884.55 H 17.7813 Z"
         style="fill:#ffffff;fill-opacity:1;fill-rule:nonzero;stroke:none"
         id="path28" /><path
         d="M 1299.28,2519.49 H 197.617 c -21.043,0 -38.101,17.06 -38.101,38.1 v 147.12 c 0,21.05 17.058,38.11 38.101,38.11 H 1299.28 c 21.04,0 38.1,-17.06 38.1,-38.11 v -147.12 c 0,-21.04 -17.06,-38.1 -38.1,-38.1"
         style="fill:#406fbf;fill-opacity:1;fill-rule:nonzero;stroke:none"
         id="path30" /><path
         d="M 2730.16,2742.82 H 1628.5 c -21.04,0 -38.1,-17.06 -38.1,-38.11 v -147.12 c 0,-21.04 17.06,-38.1 38.1,-38.1 h 1101.66 c 21.05,0 38.11,17.06 38.11,38.1 v 147.12 c 0,21.05 -17.06,38.11 -38.11,38.11 z m 0,-10 c 15.5,0 28.11,-12.61 28.11,-28.11 v -147.12 c 0,-15.49 -12.61,-28.1 -28.11,-28.1 H 1628.5 c -15.49,0 -28.1,12.61 -28.1,28.1 v 147.12 c 0,15.5 12.61,28.11 28.1,28.11 h 1101.66"
         style="fill:#406fbf;fill-opacity:1;fill-rule:nonzero;stroke:none"
         id="path32" /><path
         d="m 355.313,2429.48 c -108.141,0 -195.801,-87.67 -195.801,-195.8 0,-108.14 87.66,-195.8 195.801,-195.8 108.132,0 195.792,87.66 195.792,195.8 0,108.13 -87.66,195.8 -195.792,195.8 m 0,-10 c 102.445,0 185.792,-83.35 185.792,-185.8 0,-102.45 -83.347,-185.8 -185.792,-185.8 -102.454,0 -185.801,83.35 -185.801,185.8 0,102.45 83.347,185.8 185.801,185.8"
         style="fill:#406fbf;fill-opacity:1;fill-rule:nonzero;stroke:none"
         id="path34" /><path
         d="m 355.309,2072.11 c -61.434,0 -114.809,34.25 -142.067,84.62 40.684,27.17 89.504,43.04 142.067,43.04 52.562,0 101.382,-15.87 142.066,-43.04 -27.258,-50.37 -80.633,-84.62 -142.066,-84.62"
         style="fill:#a4c3e9;fill-opacity:1;fill-rule:nonzero;stroke:none"
         id="path36" /><path
         d="m 355.309,2217 c -39.754,0 -71.981,32.23 -71.981,71.99 0,39.75 32.227,71.98 71.981,71.98 39.757,0 71.984,-32.23 71.984,-71.98 0,-39.76 -32.227,-71.99 -71.984,-71.99"
         style="fill:#a4c3e9;fill-opacity:1;fill-rule:nonzero;stroke:none"
         id="path38" /><path
         d="M 2364.23,2133.03 H 761.762 c -55.586,0 -100.653,45.06 -100.653,100.65 0,55.59 45.067,100.65 100.653,100.65 H 2553.64 c -72.62,-57.32 -136.54,-125.2 -189.41,-201.3"
         style="fill:#a4c3e9;fill-opacity:1;fill-rule:nonzero;stroke:none"
         id="path40" /><path
         d="m 355.313,1896.15 c -108.141,0 -195.801,-87.66 -195.801,-195.8 0,-108.14 87.66,-195.8 195.801,-195.8 108.132,0 195.792,87.66 195.792,195.8 0,108.14 -87.66,195.8 -195.792,195.8 m 0,-10 c 102.445,0 185.792,-83.35 185.792,-185.8 0,-102.45 -83.347,-185.8 -185.792,-185.8 -102.454,0 -185.801,83.35 -185.801,185.8 0,102.45 83.347,185.8 185.801,185.8"
         style="fill:#406fbf;fill-opacity:1;fill-rule:nonzero;stroke:none"
         id="path42" /><path
         d="m 355.309,1538.78 c -61.434,0 -114.809,34.25 -142.067,84.62 40.684,27.18 89.504,43.04 142.067,43.04 52.562,0 101.382,-15.86 142.066,-43.04 -27.258,-50.37 -80.633,-84.62 -142.066,-84.62"
         style="fill:#a4c3e9;fill-opacity:1;fill-rule:nonzero;stroke:none"
         id="path44" /><path
         d="m 355.309,1683.67 c -39.754,0 -71.981,32.23 -71.981,71.99 0,39.75 32.227,71.98 71.981,71.98 39.757,0 71.984,-32.23 71.984,-71.98 0,-39.76 -32.227,-71.99 -71.984,-71.99"
         style="fill:#a4c3e9;fill-opacity:1;fill-rule:nonzero;stroke:none"
         id="path46" /><path
         d="M 2198.2,1599.7 H 761.762 c -55.586,0 -100.653,45.06 -100.653,100.65 v 0 c 0,55.59 45.067,100.65 100.653,100.65 H 2219.44 c -13.91,-63.94 -21.25,-130.33 -21.25,-198.38 0,-0.98 0,-1.95 0.01,-2.92"
         style="fill:#a4c3e9;fill-opacity:1;fill-rule:nonzero;stroke:none"
         id="path48" /><path
         d="m 2927.78,2370.34 h 0.01 v 141.969 h -0.01 z"
         style="fill:#cbd4e0;fill-opacity:1;fill-rule:nonzero;stroke:none"
         id="path50" /><path
         d="m 2508.83,1009.91 h -466.14 c -6.9,28.3 -10.5,57.8 -10.5,88.2 0,46.45 8.66,91.41 24.61,133.11 h 310.24 c 35.46,-81.36 83.54,-155.97 141.79,-221.31 M 2910,2365.69 v 142.49 c 5.91,1.43 11.84,2.81 17.79,4.13 l -0.01,-141.97 c -5.94,-1.48 -11.9,-3.04 -17.78,-4.65"
         style="fill:#3b69bb;fill-opacity:1;fill-rule:nonzero;stroke:none"
         id="path52" /><path
         d="M 2367.04,1231.22 H 2056.8 c 30.14,78.79 86.31,145.9 159.29,189.19 -11.71,58.95 -17.71,118.97 -17.89,179.29 h 100.74 c -0.52,-12.1 -0.78,-24.26 -0.78,-36.49 0,-118.03 24.56,-230.29 68.88,-331.99 m -34.4,569.78 h -113.2 c 26.35,121.08 76.31,233.45 144.79,332.03 h 159.72 C 2436.41,2039.95 2370.07,1926.7 2332.64,1801 m 410.73,498.96 c -18.45,21.07 -45.55,34.37 -75.75,34.37 h -113.98 c 103.39,81.61 224.42,141.8 356.36,173.85 v -142.49 c -58.36,-15.97 -114.14,-38.12 -166.63,-65.73"
         style="fill:#e0e1de;fill-opacity:1;fill-rule:nonzero;stroke:none"
         id="path54" /><path
         d="m 2523.95,2133.03 h -159.72 c 52.87,76.1 116.79,143.98 189.41,201.3 h 113.98 c 30.2,0 57.3,-13.3 75.75,-34.37 -82.23,-43.24 -156.33,-99.85 -219.42,-166.93"
         style="fill:#91aee0;fill-opacity:1;fill-rule:nonzero;stroke:none"
         id="path56" /><path
         d="M 2298.94,1599.7 H 2198.2 c -0.01,0.97 -0.01,1.94 -0.01,2.92 0,68.05 7.34,134.44 21.25,198.38 h 113.2 c -19.12,-64.2 -30.69,-131.63 -33.7,-201.3"
         style="fill:#91aee0;fill-opacity:1;fill-rule:nonzero;stroke:none"
         id="path58" /><path
         d="m 3961.94,1563.21 c 0,-459.44 -372.45,-831.89 -831.89,-831.89 -459.44,0 -831.89,372.45 -831.89,831.89 0,459.44 372.45,831.89 831.89,831.89 459.44,0 831.89,-372.45 831.89,-831.89"
         style="fill:#406fbf;fill-opacity:1;fill-rule:nonzero;stroke:none"
         id="path60" /><path
         d="m 3892.32,1564.3 c 0,-418.83 -339.53,-758.359 -758.36,-758.359 -418.83,0 -758.36,339.529 -758.36,758.359 0,418.83 339.53,758.36 758.36,758.36 418.83,0 758.36,-339.53 758.36,-758.36"
         style="fill:#ffffff;fill-opacity:1;fill-rule:nonzero;stroke:none"
         id="path62" /><path
         d="m 2722,1678.1 c -0.2,0.74 -0.31,1.76 -0.37,2.89 l 0.88,-2.3 c 0.69,-2.37 -0.06,-2.52 -0.51,-0.59 z m 156.12,395.02 -48.4,-61.98 c 0,0 -42.51,-32.27 -58.59,-59.83 -18.82,-18.64 -36.06,-37.69 -53.06,-57.75 -19.13,-22.78 -37.3,-46.59 -54.37,-72.11 -16.68,-25.88 -32.98,-52.58 -45.22,-85.92 -5.9,-16.88 -11.58,-35.15 -12.09,-59.9 -0.12,-12.36 1.44,-26.86 7.56,-42.49 6,-15.63 17.87,-31.49 31.73,-41.99 l 10.62,-8.04 15.9,-3.01 c 32.03,-6.06 63.88,-9.05 95.22,-9.34 l 12.61,1.05 -12.71,126.52 c -10.74,-0.41 -33.71,-2.1 -44.25,-1.87 0.37,1.95 0.78,3.94 1.28,5.96 5.09,21.27 14.78,45.96 26.07,69.9 11.19,24.24 24.09,48.56 37.51,72.83 11.77,21.35 24.42,42.87 36.77,63.86 l 59.85,37.77 35.18,62.34 -41.61,64"
         style="fill:#872f37;fill-opacity:1;fill-rule:nonzero;stroke:none"
         id="path64" /><path
         d="m 3218.89,1939.13 c 1.52,7.68 -0.92,8.2 -2.88,8.17 -1.53,-0.03 -6.36,-3.75 -7.48,-8.38 -9.29,-14.42 -20.76,-26.87 -35.93,-37.83 -1.97,-1.42 -3.89,-2.86 -5.99,-4.23 -19.25,-12.6 -39.41,-18.65 -58.95,-19.42 0.39,-2.1 0.78,-4.2 1.1,-6.3 0.77,-4.92 1.31,-9.82 1.65,-14.67 2.24,-31.9 -6.07,-61.53 -41.98,-78.47 -0.14,-1.99 -4.89,-4.07 -6.49,-5.49 -10.03,-8.92 -23.96,-28.52 -23.81,-45.48 0.11,-13.06 12.22,-23.31 26.58,-35.71 l 20.22,-13.53 27.39,2.6 c 84.12,24.7 123.33,101.56 121.53,107.24 -21.77,35.59 -21.47,97.65 -14.96,151.5"
         style="fill:#872f37;fill-opacity:1;fill-rule:nonzero;stroke:none"
         id="path66" /><path
         d="m 3400.73,1756.93 c 0,0 -5.64,1.02 -15.27,2.56 -19.92,3.19 -109.16,23.38 -152.23,27.26 l -0.05,-0.07 c -10.13,-21.22 -42.76,-73.24 -126.88,-97.93 l -20.81,-4.93 -19.59,10.41 c -14.36,12.39 -21.72,25.29 -21.83,38.35 -0.15,16.96 11.77,31.17 21.8,40.09 l 1.73,2.32 c -0.18,2.41 -0.19,3.98 0.04,4.21 -6.27,-0.79 -86.01,-12.91 -92.79,-13.99 -103.81,-16.47 -220.68,-61.27 -220.68,-61.27 l 0.83,-7.18 14.45,-126 5.47,-47.67 c 0,0 40.08,4.48 92.5,13.73 -14.37,-127.42 -17.09,-312.01 26.57,-549.332 46.02,0.871 170.72,3.344 170.73,3.203 122.57,2.297 251.17,4.719 296.57,5.571 1.22,19.948 -0.95,61.358 -3.13,117.948 l -2.67,87.36 c -1.61,77.2 -1.28,169.8 5.64,269.28 1.09,15.65 2.37,31.49 3.81,47.46 l 0.05,-0.06 c 60.61,-65.57 121.32,-128.17 121.32,-128.17 l 28.64,27.61 c 36.72,17.75 65.62,49.4 90.84,87.57 l 33.67,32.45 c 0,0 -156.75,205.44 -238.73,219.22"
         style="fill:#406fbf;fill-opacity:1;fill-rule:nonzero;stroke:none"
         id="path68" /><path
         d="m 3361.13,1470.85 v 0 0 c 0.01,0.2 0.02,0.4 0.04,0.6 -0.02,-0.2 -0.03,-0.4 -0.04,-0.6"
         style="fill:#a7a9a8;fill-opacity:1;fill-rule:nonzero;stroke:none"
         id="path70" /><path
         d="m 3361.13,1470.85 -23.04,39.38 c -10.63,18.17 -17.3,38.37 -19.49,58.94 14.71,-16.45 30.52,-33.76 46.33,-50.86 -1.41,-15.76 -2.68,-31.41 -3.76,-46.86 -0.02,-0.2 -0.03,-0.4 -0.04,-0.6 v 0"
         style="fill:#2d5bb2;fill-opacity:1;fill-rule:nonzero;stroke:none"
         id="path72" /><path
         d="m 3361.15,1470.82 -0.02,0.03 c 0.01,0.2 0.02,0.4 0.04,0.6 1.08,15.45 2.35,31.1 3.77,46.86 l 0.05,-0.06 c -1.44,-15.95 -2.76,-31.8 -3.84,-47.43"
         style="fill:#a7a9a8;fill-opacity:1;fill-rule:nonzero;stroke:none"
         id="path74" /><path
         d="m 3361.17,1471.45 c 1.08,15.45 2.35,31.1 3.76,46.86 h 0.01 c -1.42,-15.76 -2.69,-31.41 -3.77,-46.86"
         style="fill:#2d5bb2;fill-opacity:1;fill-rule:nonzero;stroke:none"
         id="path76" /><path
         d="m 3107.65,1877.44 c 0.39,-2.1 0.78,-4.2 1.11,-6.3 -0.32,2.1 -0.71,4.2 -1.1,6.3 h -0.01"
         style="fill:#872f37;fill-opacity:1;fill-rule:nonzero;stroke:none"
         id="path78" /><path
         d="m 3109.29,1867.52 c -0.17,1.2 -0.34,2.41 -0.53,3.62 0.19,-1.21 0.36,-2.42 0.53,-3.62"
         style="fill:#c3c5c2;fill-opacity:1;fill-rule:nonzero;stroke:none"
         id="path80" /><path
         d="m 3172.6,1901.09 c -1.97,-1.42 -3.89,-2.86 -5.99,-4.23 -19.25,-12.6 -39.41,-18.65 -58.95,-19.42 0.39,-2.1 0.78,-4.2 1.1,-6.3 0.77,-4.92 1.31,-9.82 1.65,-14.67 l 0.1,-0.85 c 21.5,3.51 49.52,23.27 62.09,45.47"
         style="fill:#872f37;fill-opacity:1;fill-rule:nonzero;stroke:none"
         id="path82" /><path
         d="m 3284.85,1771.55 c -1.79,8.09 -7.99,14.92 -16.57,16.96 l -20.78,4.95 c -5.46,1.31 -10.84,-1.13 -13.65,-5.83 l -0.67,-0.95 c -10.13,-21.22 -42.76,-73.24 -126.88,-97.93 l -6.54,-1.56 v 0.01 l -14.27,-3.39 -19.59,10.41 c -14.36,12.4 -21.72,25.3 -21.83,38.35 -0.15,16.97 11.77,31.18 21.8,40.1 l 2.87,3.71 c 0.91,2.3 0.72,3.45 -0.89,4.46 -22.01,15.9 -71.51,-8.62 -73.47,-12.87 -2.11,-2.04 -4.21,-4.29 -6.27,-6.76 -10.06,-12.13 -18.56,-29.58 -15.99,-53.01 5.71,-52 48.83,-76.61 50.67,-77.63 l 1.43,-0.37 1.58,0.46 c 0.91,0.58 1.44,1.61 1.36,2.69 -0.1,1.49 -1.93,36.17 37.02,55.11 l 17.53,-9.31 c -75.25,-308.66 -24.21,-678.51 -22.79,-688.529 3.7,0.059 5.8,0.09 5.8,0.07 l 0.09,0.368 c -0.54,3.742 -53.06,376.881 22.74,687.191 l 18.37,4.35 c 21.29,-26.01 11.19,-64.61 11.09,-65.01 -0.3,-1.09 0.05,-2.26 0.91,-3 l 1.93,-0.72 1.18,0.25 c 4,1.75 98.57,43.23 131.64,82.71 19.64,23.45 28.36,48.28 32.21,64.98 0.76,3.31 0.67,6.61 -0.03,9.74"
         style="fill:#ffffff;fill-opacity:1;fill-rule:nonzero;stroke:none"
         id="path84" /><path
         d="m 3110.51,1855.62 -0.1,0.85 c -0.34,4.85 -0.88,9.75 -1.65,14.67 -0.32,2.1 -0.71,4.2 -1.1,6.3 19.54,0.77 39.7,6.82 58.95,19.42 2.1,1.37 4.02,2.81 5.99,4.23 -12.57,-22.2 -40.59,-41.96 -62.09,-45.47"
         style="fill:#682329;fill-opacity:1;fill-rule:nonzero;stroke:none"
         id="path86" /><path
         d="m 3027.09,2134.41 c 10.06,17.96 22.26,34.21 36.7,47.25 -6.84,5.15 -12.61,10.95 -16.96,17.48 -15.74,-7.39 -30.63,-28.32 -38.34,-75.08 -2,-12.1 -2,-23.19 -0.83,-33.49 3.03,8.8 6.47,17.49 10.34,25.93 l 9.09,17.91"
         style="fill:#17282f;fill-opacity:1;fill-rule:nonzero;stroke:none"
         id="path88" /><path
         d="m 3212.95,2011.64 c 45.13,52.23 16.43,118.75 -9.97,133.72 4.88,69.82 -95.55,78.95 -139.19,36.3 -14.44,-13.04 -26.64,-29.29 -36.7,-47.25 L 3018,2116.5 c -3.87,-8.44 -7.31,-17.13 -10.34,-25.93 -11.61,-33.67 -17.15,-68.94 -17,-98.28 0.33,-66.92 55.52,-117.26 117,-114.85 v 0 c 19.54,0.77 39.7,6.82 58.95,19.42 2.1,1.37 4.02,2.81 5.99,4.23 15.17,10.96 26.64,23.41 35.93,37.83 22.48,35.93 16.61,54.03 4.42,72.72"
         style="fill:#872f37;fill-opacity:1;fill-rule:nonzero;stroke:none"
         id="path90" /><path
         d="m 3012.52,2122.46 c -1.43,-1.79 -1.14,-4.39 0.64,-5.82 0.78,-0.63 1.73,-0.93 2.66,-0.91 l 2.18,0.77 0.97,0.77 c 11.67,14.53 26.68,13.78 27.34,13.74 2.21,-0.14 4.24,1.58 4.4,3.85 0.15,2.27 -1.55,4.24 -3.83,4.41 -0.54,0.04 -9.55,0.43 -19.79,-4.87 -4.84,-2.5 -9.93,-6.16 -14.57,-11.94"
         style="fill:#17282f;fill-opacity:1;fill-rule:nonzero;stroke:none"
         id="path92" /><path
         d="m 3120.68,2002.57 -2.93,0.04 c -0.19,-0.19 -19.41,-18.44 -49.72,-12.4 -1.12,0.22 -2.21,-0.5 -2.43,-1.62 -0.22,-1.12 0.5,-2.21 1.62,-2.43 5.15,-1.03 9.97,-1.41 14.47,-1.33 23.9,0.45 38.24,14.13 38.95,14.81 l 0.04,2.93"
         style="fill:#17282f;fill-opacity:1;fill-rule:nonzero;stroke:none"
         id="path94" /><path
         d="m 3066.75,2074 c 0,0 -25.04,-36.47 -46.85,-52.13 9.56,-13.77 31.58,-12.73 31.58,-12.73 l 15.27,64.86"
         style="fill:#6b1317;fill-opacity:1;fill-rule:nonzero;stroke:none"
         id="path96" /><path
         d="m 3031.61,2071.57 c 4.52,-0.91 9.5,3.93 11.11,10.79 1.62,6.87 -0.74,13.16 -5.25,14.07 -4.52,0.89 -9.49,-3.94 -11.11,-10.81 -1.62,-6.86 0.73,-13.15 5.25,-14.05"
         style="fill:#17282f;fill-opacity:1;fill-rule:nonzero;stroke:none"
         id="path98" /><path
         d="m 3109.74,2056 c 4.53,-0.9 9.5,3.94 11.11,10.8 1.62,6.86 -0.73,13.16 -5.25,14.06 -4.52,0.9 -9.49,-3.94 -11.11,-10.8 -1.62,-6.87 0.74,-13.16 5.25,-14.06"
         style="fill:#17282f;fill-opacity:1;fill-rule:nonzero;stroke:none"
         id="path100" /><path
         d="m 3212.12,2145.62 c -2.75,-0.16 -5.82,-0.25 -9.14,-0.26 -4.79,-11.09 -8.88,-25.31 -11.87,-43.46 -6.61,-40.01 6.93,-70.2 21.84,-90.26 20.51,-34.83 46.76,-33.85 69.51,-7.32 36.64,35.16 71.91,105.26 -0.94,160.31 -11.44,-9.79 -32.95,-16.88 -69.4,-19.01"
         style="fill:#17282f;fill-opacity:1;fill-rule:nonzero;stroke:none"
         id="path102" /><path
         d="m 3263.06,2024.9 c -16.52,6.77 -35.23,-1.18 -50.11,-13.26 -8.48,-6.87 -15.73,-15.08 -20.61,-22.7 -14.15,-22.1 -9.13,-47.83 16.19,-50.02 1.4,-0.13 2.83,-0.22 4.36,-0.19 1.96,0.03 3.98,0.21 5.99,0.4 17.93,1.73 37.82,9.75 52.74,25.02 11.34,11.58 15,27.2 10.84,40.17 -2.81,8.77 -9.1,16.36 -19.4,20.58"
         style="fill:#872f37;fill-opacity:1;fill-rule:nonzero;stroke:none"
         id="path104" /><path
         d="m 3063.79,2181.65 c 36.57,-27.54 103.17,-36.45 139.19,-36.29 3.32,0.01 6.39,0.1 9.14,0.26 36.45,2.13 57.96,9.22 69.4,19.01 42.27,36.19 -54.08,109.65 -54.08,109.65 0,0 10.75,-26.36 -11.66,-33.64 -22.41,-7.26 -180.34,51.47 -177.65,-15.19 0.4,-9.86 3.56,-18.58 8.7,-26.31 4.34,-6.53 10.12,-12.33 16.96,-17.49"
         style="fill:#17282f;fill-opacity:1;fill-rule:nonzero;stroke:none"
         id="path106" /><path
         d="m 2893.99,987.48 c 0,0 -2.69,-23.32 -6.89,-62.64 76.3,-25.789 157.94,-39.988 242.95,-39.988 80.16,0 157.38,12.527 229.91,35.578 1.08,47.461 1.73,75.832 1.73,75.832 l -296.98,-5.571 -5.79,-0.109 -164.93,-3.102"
         style="fill:#17282f;fill-opacity:1;fill-rule:nonzero;stroke:none"
         id="path108" /><path
         d="m 3550.32,1374.43 -0.2,1.49 c -0.01,2.43 0.84,3.28 0.85,1.86 0.03,-0.74 -0.2,-1.92 -0.65,-3.35 z m 116.87,15.74 c -0.81,8.36 -2.82,16.91 -5.78,24.94 -1.54,3.95 -3.14,8 -5.1,11.58 l -2.96,5.46 -1.61,2.72 c -14.2,24.64 -29.7,47.92 -45.95,70.39 l -90.84,-87.57 c 12.09,-14.95 23.74,-30.05 34.55,-45.42 -1.5,-3.95 -4.08,-9.13 -7.68,-14.45 -11.87,-17.58 -29.93,-37.12 -49.51,-55.09 -37.19,-34.64 -80.36,-67.66 -122.96,-99.28 l -13.86,-1.88 -55.82,-7.58 -54.87,-37.05 36.07,-73.46 45.38,23.24 c 0,0 15.21,1.77 31.91,7.5 15.39,5.27 32.03,13.93 39.29,27.81 27.09,10.61 52.43,22.46 77.98,35.6 26.8,13.91 53.06,29.26 78.92,46.84 12.9,8.88 25.6,18.42 38.22,28.96 12.63,10.52 25.09,22.15 37.06,36.27 11.81,14.35 24.1,30.67 32.6,55.68 4.12,12.44 6.66,27.98 4.96,44.79"
         style="fill:#872f37;fill-opacity:1;fill-rule:nonzero;stroke:none"
         id="path110" /><path
         d="m 2681.22,1138.73 c 0,-151.601 -122.89,-274.5 -274.5,-274.5 -151.6,0 -274.5,122.899 -274.5,274.5 0,151.6 122.9,274.5 274.5,274.5 151.61,0 274.5,-122.9 274.5,-274.5"
         style="fill:#17282f;fill-opacity:1;fill-rule:nonzero;stroke:none"
         id="path112" /><path
         d="m 2557.64,1164.43 h -125.22 v 125.22 c 0,14.13 -11.56,25.69 -25.7,25.69 -14.13,0 -25.69,-11.56 -25.69,-25.69 v -125.22 h -125.22 c -14.13,0 -25.7,-11.57 -25.7,-25.7 0,-14.13 11.57,-25.7 25.7,-25.7 h 125.22 V 987.809 c 0,-14.129 11.56,-25.688 25.69,-25.688 14.14,0 25.7,11.559 25.7,25.688 v 125.221 h 125.22 c 14.13,0 25.69,11.57 25.69,25.7 0,14.13 -11.56,25.7 -25.69,25.7"
         style="fill:#ffffff;fill-opacity:1;fill-rule:nonzero;stroke:none"
         id="path114" /><path
         d="m 3124.73,2107.99 c 0.78,-0.11 15.36,-2.38 22.75,-18.55 0.71,-1.54 2.24,-2.45 3.84,-2.41 l 1.64,0.37 c 2.08,0.95 3,3.41 2.05,5.49 -9.4,20.57 -28.43,23.21 -29.23,23.31 -2.24,0.29 -4.34,-1.31 -4.63,-3.58 -0.28,-2.26 1.31,-4.33 3.58,-4.63"
         style="fill:#17282f;fill-opacity:1;fill-rule:nonzero;stroke:none"
         id="path116" /></g></g></svg>
