<?xml version="1.0" encoding="iso-8859-1"?>
<!-- Generator: Adobe Illustrator 19.0.0, SVG Export Plug-In . SVG Version: 6.00 Build 0)  -->
<svg version="1.1" id="Layer_1" xmlns="http://www.w3.org/2000/svg" xmlns:xlink="http://www.w3.org/1999/xlink" x="0px" y="0px"
	 viewBox="0 0 502 502" style="enable-background:new 0 0 502 502;" xml:space="preserve">
<g>
	<path style="fill:#D1DCEB;" d="M471.41,455.672L364.386,348.648c-7.665,12.131-17.964,22.43-30.095,30.095l107.023,107.023
		c4.155,4.155,9.602,6.233,15.048,6.233s10.893-2.078,15.048-6.233C479.72,477.457,479.72,463.983,471.41,455.672z"/>
	<path style="fill:#D1DCEB;" d="M186.633,297.285c0-53.181,43.112-96.294,96.294-96.294c17.683,0,34.249,4.771,48.491,13.089V92.53
		L248.888,10H24.371v427.735h307.046v-57.247c-14.241,8.319-30.808,13.09-48.491,13.09
		C229.746,393.578,186.633,350.466,186.633,297.285z"/>
	<path style="fill:#4EC9DC;" d="M331.418,214.08c-14.242-8.318-30.808-13.089-48.491-13.089c-53.181,0-96.294,43.112-96.294,96.294
		s43.112,96.294,96.294,96.294c17.683,0,34.249-4.771,48.491-13.09c0.968-0.566,1.926-1.147,2.873-1.745
		c12.131-7.665,22.43-17.964,30.095-30.095c9.394-14.866,14.835-32.478,14.835-51.364
		C379.221,261.786,360.008,230.778,331.418,214.08z"/>
	<polygon style="fill:#4EC9DC;" points="248.888,92.53 248.888,10 331.418,92.53 	"/>
	<g>
		<path d="M478.482,448.601l-101.6-101.599c8.089-15.262,12.339-32.29,12.339-49.717c0-35.689-18.182-69.164-47.804-88.743V92.53
			c0-2.652-1.054-5.196-2.929-7.071l-82.529-82.53C254.083,1.054,251.54,0,248.888,0H24.371c-5.522,0-10,4.477-10,10v427.735
			c0,5.523,4.478,10,10,10h307.046c5.522,0,10-4.477,10-10v-37.722l92.825,92.825c5.908,5.908,13.764,9.162,22.119,9.162
			c8.356,0,16.212-3.254,22.12-9.162C490.678,480.642,490.678,460.797,478.482,448.601z M369.221,297.285
			c0,16.35-4.595,32.264-13.289,46.022c-6.835,10.818-16.166,20.148-26.984,26.984c-0.848,0.536-1.706,1.057-2.574,1.563
			c-13.131,7.67-28.154,11.724-43.446,11.724c-47.583,0-86.294-38.711-86.294-86.293s38.711-86.293,86.294-86.293
			c15.291,0,30.315,4.054,43.447,11.724C352.803,238.151,369.221,266.724,369.221,297.285z M258.888,34.142l24.194,24.194
			l24.194,24.194h-48.387V34.142H258.888z M321.417,427.735H34.371V20h204.517v72.53c0,5.523,4.478,10,10,10h72.529v95.662
			l0.009,0.014c-12.214-4.741-25.275-7.215-38.499-7.215c-58.61,0-106.294,47.683-106.294,106.293s47.684,106.293,106.294,106.293
			c13.224,0,26.285-2.474,38.499-7.215l-0.009,0.015V427.735z M464.339,478.696c-2.131,2.131-4.964,3.304-7.978,3.304
			s-5.847-1.173-7.977-3.304l-98.706-98.706l-0.008-0.001c5.856-4.74,11.221-10.104,15.961-15.96l0.001,0.008l98.707,98.707
			C468.737,467.142,468.737,474.298,464.339,478.696z"/>
		<path d="M246.838,238.403c-20.641,12.674-32.964,34.686-32.964,58.882c0,5.523,4.478,10,10,10s10-4.477,10-10
			c0-17.19,8.759-32.83,23.429-41.838c4.707-2.89,6.179-9.048,3.289-13.754C257.702,236.986,251.544,235.513,246.838,238.403z"/>
		<path d="M317.708,237.624c-10.52-6.145-22.547-9.392-34.781-9.392c-5.522,0-10,4.477-10,10s4.478,10,10,10
			c8.693,0,17.232,2.304,24.693,6.662c1.586,0.926,3.321,1.367,5.034,1.367c3.438,0,6.785-1.775,8.645-4.958
			C324.085,246.533,322.477,240.409,317.708,237.624z"/>
	</g>
</g>
<g>
</g>
<g>
</g>
<g>
</g>
<g>
</g>
<g>
</g>
<g>
</g>
<g>
</g>
<g>
</g>
<g>
</g>
<g>
</g>
<g>
</g>
<g>
</g>
<g>
</g>
<g>
</g>
<g>
</g>
</svg>
